<?xml version="1.0" encoding="UTF-8"?>
<svg xmlns="http://www.w3.org/2000/svg" xmlns:xlink="http://www.w3.org/1999/xlink" width="54px" height="54px" viewBox="0 0 54 54" version="1.1">
<g id="surface1">
<path style=" stroke:none;fill-rule:nonzero;fill:rgb(0%,0%,0%);fill-opacity:1;" d="M 52.253906 8.117188 L 1.746094 8.117188 C 0.785156 8.117188 0 8.902344 0 9.863281 L 0 44.136719 C 0 45.097656 0.785156 45.882812 1.746094 45.882812 L 52.253906 45.882812 C 53.214844 45.882812 54 45.097656 54 44.136719 L 54 9.863281 C 54 8.902344 53.214844 8.117188 52.253906 8.117188 Z M 52.308594 36.976562 L 49.546875 36.976562 C 49.078125 36.976562 48.703125 37.355469 48.703125 37.824219 C 48.703125 38.289062 49.078125 38.667969 49.546875 38.667969 L 52.308594 38.667969 L 52.308594 40.585938 L 38.722656 40.585938 C 38.257812 40.585938 37.878906 40.964844 37.878906 41.429688 C 37.878906 41.898438 38.257812 42.277344 38.722656 42.277344 L 52.308594 42.277344 L 52.308594 44.136719 C 52.308594 44.167969 52.285156 44.191406 52.253906 44.191406 L 1.746094 44.191406 C 1.714844 44.191406 1.691406 44.167969 1.691406 44.136719 L 1.691406 42.277344 L 35.117188 42.277344 C 35.582031 42.277344 35.960938 41.898438 35.960938 41.429688 C 35.960938 40.964844 35.582031 40.585938 35.117188 40.585938 L 1.691406 40.585938 L 1.691406 38.667969 L 45.941406 38.667969 C 46.40625 38.667969 46.785156 38.289062 46.785156 37.824219 C 46.785156 37.355469 46.40625 36.976562 45.941406 36.976562 L 1.691406 36.976562 L 1.691406 35.058594 C 1.710938 35.058594 1.726562 35.058594 1.746094 35.058594 L 52.253906 35.058594 C 52.273438 35.058594 52.289062 35.058594 52.308594 35.058594 Z M 52.308594 33.3125 C 52.308594 33.34375 52.285156 33.371094 52.253906 33.371094 L 1.746094 33.371094 C 1.714844 33.371094 1.691406 33.34375 1.691406 33.3125 L 1.691406 9.863281 C 1.691406 9.832031 1.714844 9.808594 1.746094 9.808594 L 52.253906 9.808594 C 52.285156 9.808594 52.308594 9.832031 52.308594 9.863281 Z M 52.308594 33.3125 "/>
<path style=" stroke:none;fill-rule:nonzero;fill:rgb(0%,0%,0%);fill-opacity:1;" d="M 49.546875 15.332031 C 48.023438 15.332031 46.785156 14.09375 46.785156 12.570312 C 46.785156 12.101562 46.40625 11.722656 45.9375 11.722656 L 36.019531 11.722656 C 35.550781 11.722656 35.171875 12.101562 35.171875 12.570312 C 35.171875 13.035156 35.550781 13.414062 36.019531 13.414062 L 45.175781 13.414062 C 45.519531 15.195312 46.921875 16.597656 48.703125 16.941406 L 48.703125 26.234375 C 46.921875 26.578125 45.515625 27.984375 45.175781 29.761719 L 36.019531 29.761719 C 35.550781 29.761719 35.171875 30.140625 35.171875 30.609375 C 35.171875 31.074219 35.550781 31.453125 36.019531 31.453125 L 45.9375 31.453125 C 46.40625 31.453125 46.785156 31.074219 46.785156 30.609375 C 46.785156 29.085938 48.023438 27.84375 49.546875 27.84375 C 50.015625 27.84375 50.390625 27.46875 50.390625 27 L 50.390625 16.175781 C 50.390625 15.710938 50.015625 15.332031 49.546875 15.332031 Z M 49.546875 15.332031 "/>
<path style=" stroke:none;fill-rule:nonzero;fill:rgb(0%,0%,0%);fill-opacity:1;" d="M 17.980469 29.761719 L 8.824219 29.761719 C 8.480469 27.984375 7.078125 26.578125 5.296875 26.234375 L 5.296875 16.941406 C 7.078125 16.597656 8.484375 15.195312 8.824219 13.414062 L 17.980469 13.414062 C 18.449219 13.414062 18.828125 13.035156 18.828125 12.570312 C 18.828125 12.101562 18.449219 11.722656 17.980469 11.722656 L 8.0625 11.722656 C 7.59375 11.722656 7.214844 12.101562 7.214844 12.570312 C 7.214844 14.09375 5.976562 15.332031 4.453125 15.332031 C 3.984375 15.332031 3.609375 15.710938 3.609375 16.175781 L 3.609375 27 C 3.609375 27.46875 3.984375 27.84375 4.453125 27.84375 C 5.976562 27.84375 7.214844 29.085938 7.214844 30.609375 C 7.214844 31.074219 7.59375 31.453125 8.0625 31.453125 L 17.980469 31.453125 C 18.449219 31.453125 18.828125 31.074219 18.828125 30.609375 C 18.828125 30.140625 18.449219 29.761719 17.980469 29.761719 Z M 17.980469 29.761719 "/>
<path style=" stroke:none;fill-rule:nonzero;fill:rgb(0%,0%,0%);fill-opacity:1;" d="M 27 11.722656 C 21.5625 11.722656 17.136719 16.148438 17.136719 21.589844 C 17.136719 27.027344 21.5625 31.453125 27 31.453125 C 32.4375 31.453125 36.863281 27.027344 36.863281 21.589844 C 36.863281 16.148438 32.4375 11.722656 27 11.722656 Z M 27 29.761719 C 22.492188 29.761719 18.828125 26.09375 18.828125 21.589844 C 18.828125 17.082031 22.492188 13.414062 27 13.414062 C 31.507812 13.414062 35.171875 17.082031 35.171875 21.589844 C 35.171875 26.09375 31.507812 29.761719 27 29.761719 Z M 27 29.761719 "/>
<path style=" stroke:none;fill-rule:nonzero;fill:rgb(0%,0%,0%);fill-opacity:1;" d="M 27.84375 20.9375 L 27.84375 17.988281 C 29.050781 18.175781 29.761719 18.726562 29.761719 19.050781 C 29.761719 19.519531 30.140625 19.898438 30.609375 19.898438 C 31.074219 19.898438 31.453125 19.519531 31.453125 19.050781 C 31.453125 17.628906 29.953125 16.515625 27.84375 16.28125 L 27.84375 16.175781 C 27.84375 15.710938 27.46875 15.332031 27 15.332031 C 26.53125 15.332031 26.15625 15.710938 26.15625 16.175781 L 26.15625 16.28125 C 24.046875 16.515625 22.546875 17.628906 22.546875 19.050781 C 22.546875 21.035156 24.527344 21.785156 26.15625 22.238281 L 26.15625 25.1875 C 24.949219 25.003906 24.238281 24.453125 24.238281 24.125 C 24.238281 23.660156 23.859375 23.28125 23.390625 23.28125 C 22.925781 23.28125 22.546875 23.660156 22.546875 24.125 C 22.546875 25.546875 24.046875 26.660156 26.15625 26.894531 L 26.15625 27 C 26.15625 27.46875 26.53125 27.84375 27 27.84375 C 27.46875 27.84375 27.84375 27.46875 27.84375 27 L 27.84375 26.894531 C 29.953125 26.660156 31.453125 25.546875 31.453125 24.125 C 31.453125 22.140625 29.472656 21.390625 27.84375 20.9375 Z M 26.15625 20.46875 C 24.742188 20.027344 24.238281 19.632812 24.238281 19.050781 C 24.238281 18.726562 24.949219 18.175781 26.15625 17.988281 Z M 27.84375 25.1875 L 27.84375 22.707031 C 29.257812 23.152344 29.761719 23.546875 29.761719 24.125 C 29.761719 24.453125 29.050781 25.003906 27.84375 25.1875 Z M 27.84375 25.1875 "/>
</g>
</svg>
