<svg xmlns="http://www.w3.org/2000/svg" xmlns:xlink="http://www.w3.org/1999/xlink" viewBox="0 0 288.55 51.52"><defs><style>.cls-1{fill:#305468;}.cls-2{fill:url(#Безымянный_градиент_3);}</style><linearGradient id="Безымянный_градиент_3" y1="49.7" x2="288.55" y2="49.7" gradientUnits="userSpaceOnUse"><stop offset="0" stop-color="#fff" stop-opacity="0"/><stop offset="0.02" stop-color="#e6eaed" stop-opacity="0.12"/><stop offset="0.06" stop-color="#aebcc4" stop-opacity="0.39"/><stop offset="0.11" stop-color="#7f96a2" stop-opacity="0.62"/><stop offset="0.16" stop-color="#5c7888" stop-opacity="0.79"/><stop offset="0.23" stop-color="#436376" stop-opacity="0.91"/><stop offset="0.32" stop-color="#34576b" stop-opacity="0.98"/><stop offset="0.52" stop-color="#305468"/><stop offset="0.68" stop-color="#35586b" stop-opacity="0.98"/><stop offset="0.77" stop-color="#446577" stop-opacity="0.9"/><stop offset="0.84" stop-color="#5f7b8a" stop-opacity="0.77"/><stop offset="0.89" stop-color="#859aa6" stop-opacity="0.59"/><stop offset="0.94" stop-color="#b6c2ca" stop-opacity="0.35"/><stop offset="0.99" stop-color="#f1f4f5" stop-opacity="0.07"/><stop offset="1" stop-color="#fff" stop-opacity="0"/></linearGradient></defs><title>Ресурс 17</title><g id="Слой_2" data-name="Слой 2"><g id="Слой_1-2" data-name="Слой 1"><path class="cls-1" d="M17.81,33.14H14.43L5,12.44v20.7H2V6.92h3.4l9.44,20.51V6.92h3Z"/><path class="cls-1" d="M47.92,6.42A7.59,7.59,0,0,1,54.64,9.9C56.18,12.23,57,15.6,57,20s-.77,7.78-2.3,10.11a7.56,7.56,0,0,1-6.73,3.49,7.54,7.54,0,0,1-6.7-3.48Q38.91,26.67,38.9,20T41.21,9.91A7.54,7.54,0,0,1,47.92,6.42Zm0,24.54q5.79,0,5.8-10.92T47.92,9.09a4.64,4.64,0,0,0-4.3,2.84c-1,1.88-1.48,4.59-1.48,8.11s.49,6.27,1.46,8.13A4.67,4.67,0,0,0,47.92,31Z"/><path class="cls-1" d="M101.85,0,88.79,40.06H83.2L70.11,0H75L86,34.66,97,0Z"/><path class="cls-1" d="M131.19,33.14h-13.7V6.92h13.58V9.58H120.54V17.7h10.13v2.65H120.54V30.48h10.65Z"/><path class="cls-1" d="M169.9,33.14H155.63V6.92h3V30.48H169.9Z"/><path class="cls-1" d="M193.78,6.92h6.65a9.12,9.12,0,0,1,6,1.89A6.47,6.47,0,0,1,208.74,14a6.76,6.76,0,0,1-2.26,5.34,8.62,8.62,0,0,1-5.92,2h-3.74V33.14h-3Zm3,11.8h3.31q5.37,0,5.37-4.5A4.22,4.22,0,0,0,204,10.86a5.45,5.45,0,0,0-3.76-1.28h-3.46Z"/><path class="cls-1" d="M248.75,33.14h-3.2L242.65,24h-8.6l-2.94,9.18H228l8.57-26.22h3.66Zm-7-11.84-3.44-10.85L234.92,21.3Z"/><path class="cls-1" d="M286.13,6.92l-8.2,15V33.14h-3V21.92l-8.2-15h3.44l6.27,11.8,6.28-11.8Z"/><rect class="cls-2" y="47.88" width="288.55" height="3.65"/></g></g></svg>